<?xml version="1.0" encoding="UTF-8"?>
<svg version="1.1" xmlns="http://www.w3.org/2000/svg" width="512" height="512">
<path d="M0 0 C1.15475822 -0.00382555 2.30951644 -0.00765109 3.49926734 -0.01159257 C7.33018666 -0.02182906 11.16095347 -0.01794827 14.99188232 -0.01396179 C17.75436327 -0.01722332 20.516836 -0.02343452 23.27931213 -0.02944946 C29.98157866 -0.04214408 36.68380502 -0.04399669 43.38608155 -0.0416492 C48.83948195 -0.03985981 54.29287026 -0.04162894 59.74626923 -0.04587364 C60.91440559 -0.04676643 60.91440559 -0.04676643 62.10614066 -0.04767724 C63.68865429 -0.04888911 65.27116791 -0.05010325 66.85368153 -0.05131962 C81.66703486 -0.06217522 96.48036538 -0.06004221 111.29371998 -0.05393478 C124.8126443 -0.04876874 138.3314965 -0.06001632 151.85040656 -0.07903299 C165.76700972 -0.09845738 179.68357885 -0.10665926 193.60019565 -0.10290974 C201.39908902 -0.10100449 209.19792105 -0.10341883 216.99680328 -0.11762428 C223.63707174 -0.12959799 230.2772411 -0.13087651 236.91751108 -0.11883412 C240.29795785 -0.11298671 243.6780772 -0.11338872 247.05853462 -0.12383652 C285.54817965 -0.23415349 318.53452069 9.18176576 346.80731201 36.26069641 C347.67356201 37.08569641 348.53981201 37.91069641 349.43231201 38.76069641 C350.21606201 39.58569641 350.99981201 40.41069641 351.80731201 41.26069641 C352.66002686 42.13854797 352.66002686 42.13854797 353.52996826 43.03413391 C367.88686564 58.39002017 377.9122286 77.85232696 382.80731201 98.26069641 C383.17856248 99.72765772 383.17856248 99.72765772 383.55731297 101.22425461 C386.54159419 114.70767212 386.23697753 128.17125734 386.21136475 141.92182922 C386.21543743 144.69959388 386.22394355 147.47734137 386.23216248 150.25509644 C386.2492565 156.98404307 386.25021005 163.71289594 386.24494957 170.44185862 C386.24088843 175.91852659 386.24237435 181.39516711 386.24769783 186.8718338 C386.24844625 187.65486946 386.24919467 188.43790511 386.24996578 189.24466912 C386.25149745 190.83603496 386.2530358 192.42740079 386.25458074 194.01876661 C386.26827219 208.90376885 386.26289213 223.78871837 386.25139553 238.67371938 C386.24147012 252.24864871 386.25439783 265.82344161 386.27832972 279.39834991 C386.30279727 293.38400062 386.31230966 307.369588 386.305677 321.35525966 C386.30220127 329.18831396 386.30430681 337.0212635 386.32192802 344.85430145 C386.33674638 351.5233517 386.33716133 358.19222342 386.31985711 364.86127052 C386.31142223 368.25434009 386.31123129 371.64683448 386.32450867 375.03992653 C386.46476734 413.87613947 376.10634762 447.01906365 348.79949951 475.29975891 C344.43226531 479.68943234 339.78455449 483.57899115 334.80731201 487.26069641 C334.27863525 487.65853333 333.7499585 488.05637024 333.20526123 488.46626282 C311.98153433 504.24706121 285.94649579 512.61576984 259.56993103 512.52139282 C258.41038369 512.52521837 257.25083635 512.52904392 256.05615121 512.53298539 C252.20907859 512.54322249 248.36215781 512.53934099 244.51507568 512.53535461 C241.74112014 512.53861606 238.9671728 512.54482724 236.19322205 512.55084229 C229.46321709 512.56353693 222.73325213 512.56538954 216.00323721 512.56304202 C210.5278984 512.56125278 205.05257164 512.56302143 199.57723427 512.56726646 C198.79541261 512.56786165 198.01359095 512.56845684 197.20807773 512.56907007 C195.61936137 512.57028193 194.03064502 512.57149606 192.44192866 512.57271244 C177.57090161 512.58356786 162.69989728 512.581435 147.82886896 512.5753276 C134.25430373 512.57016048 120.6798103 512.58141203 107.10525926 512.60042582 C93.13329034 512.61984472 79.16135533 512.62805311 65.18937284 512.62430257 C57.35865337 512.62239663 49.52799499 512.62481853 41.69728661 512.63901711 C35.03063926 512.65098371 28.36409061 512.65227708 21.69744178 512.64022694 C18.30294242 512.63437489 14.90876943 512.63479118 11.51425934 512.64522934 C-2.04719677 512.68390472 -14.98901979 512.61935288 -28.19268799 509.26069641 C-28.99811948 509.06344625 -29.80355097 508.86619608 -30.63338947 508.66296864 C-64.06222718 499.85005343 -92.06237132 478.39101913 -109.57843018 448.62104797 C-120.50701657 429.60258683 -126.3436126 409.65957962 -126.33985901 387.6958313 C-126.3435357 386.53606567 -126.34721238 385.37630003 -126.35100049 384.18138999 C-126.36008792 380.97496116 -126.36472835 377.76856241 -126.3673898 374.56212294 C-126.37130951 371.09829207 -126.38088683 367.63447579 -126.38960266 364.1706543 C-126.40932349 355.81003769 -126.41942917 347.44941996 -126.42833045 339.08878592 C-126.43272184 335.14294722 -126.43808655 331.19710985 -126.44331932 327.2512722 C-126.46032966 314.11842153 -126.47482006 300.98557167 -126.48206806 287.85271168 C-126.48397769 284.44809785 -126.48589806 281.04348404 -126.487854 277.63887024 C-126.48857961 276.36970358 -126.48857961 276.36970358 -126.48931988 275.07489719 C-126.49760614 261.39270846 -126.5229201 247.71060754 -126.55543468 234.02845708 C-126.58860931 219.9527027 -126.60652631 205.87699278 -126.6097123 191.80119914 C-126.61186815 183.90986888 -126.62047974 176.01866657 -126.64617348 168.12737465 C-126.66802343 161.40139768 -126.67586158 154.67557973 -126.6662067 147.94957129 C-126.66170236 144.52617196 -126.66556047 141.10336225 -126.68296814 137.67996597 C-126.86967098 98.75661851 -116.55782692 65.57078994 -89.18487549 37.22163391 C-84.81764129 32.83196048 -80.16993047 28.94240167 -75.19268799 25.26069641 C-74.66401123 24.8628595 -74.13533447 24.46502258 -73.59063721 24.05513 C-52.38450611 8.28741489 -26.35705808 -0.0947173 0 0 Z M85.80731201 104.26069641 C84.20315262 104.72296124 82.59898603 105.18520107 80.99481201 105.64741516 C70.70260421 108.74216225 61.20393908 113.07831421 51.80731201 118.26069641 C51.16664795 118.61003235 50.52598389 118.95936829 49.86590576 119.31929016 C40.24112263 124.62750389 31.84736855 130.77608419 23.80731201 138.26069641 C23.19855225 138.82562805 22.58979248 139.39055969 21.96258545 139.97261047 C-7.84242766 167.95189536 -27.15668694 206.19761295 -28.46612549 247.35835266 C-29.29069828 293.12932529 -14.74401719 335.0540951 17.03387451 368.48725891 C21.34856039 372.80194479 25.93883167 376.58991402 30.80731201 380.26069641 C31.34227295 380.6653009 31.87723389 381.0699054 32.42840576 381.48677063 C67.20863145 407.60206134 108.71465449 419.50518759 152.26873779 413.49116516 C155.82080599 412.89021103 159.3117221 412.1299455 162.80731201 411.26069641 C163.63489014 411.05670227 164.46246826 410.85270813 165.31512451 410.64253235 C193.5373663 403.49331402 217.56703155 391.36727273 238.80731201 371.26069641 C239.68000732 370.45245422 240.55270264 369.64421204 241.45184326 368.81147766 C268.83874801 342.59997655 286.37874963 304.51023462 287.91693115 266.55586243 C288.88183908 219.23500147 273.80911211 177.49585219 240.99481201 143.13569641 C231.37734648 133.83163098 220.28679837 126.07703608 208.80731201 119.26069641 C208.22401123 118.91409973 207.64071045 118.56750305 207.03973389 118.21040344 C187.01595012 106.51154624 164.1170557 99.30682122 140.86590576 98.98725891 C139.61059555 98.9684668 139.61059555 98.9684668 138.32992554 98.94929504 C120.24851056 98.73088459 103.23142672 98.8424834 85.80731201 104.26069641 Z " fill="#000000" transform="translate(126.19268798828125,-0.2606964111328125)"/>
<path d="M0 0 C1.90011841 0.00737183 1.90011841 0.00737183 3.83862305 0.01489258 C37.25057542 0.43155375 69.66432006 14.34092737 94.6875 36.3125 C95.0175 36.9725 95.3475 37.6325 95.6875 38.3125 C94.9140625 38.53164062 94.140625 38.75078125 93.34375 38.9765625 C85.09859322 41.48684538 77.72631411 44.21025765 73.25 52 C69.70906312 60.38392229 70.22180173 68.18192269 73.12890625 76.671875 C76.01754195 83.41926465 79.75522622 89.69286639 83.40478516 96.05029297 C94.04766583 114.82016969 99.64003842 133.35464502 93.97564697 154.88008118 C93.72973816 155.76270126 93.48382935 156.64532135 93.23046875 157.5546875 C92.96868835 158.52460129 92.70690796 159.49451508 92.43719482 160.49382019 C89.04459371 172.91061168 85.36130358 185.24661835 81.65429688 197.57250977 C80.62273494 201.00312298 79.60105492 204.43659944 78.58161545 207.87083149 C77.78652814 210.5443762 76.98558619 213.21613922 76.18289948 215.88741112 C75.61966729 217.76644451 75.06206914 219.64716373 74.50457764 221.52790833 C74.16372131 222.65476547 73.82286499 223.78162262 73.47167969 224.94262695 C73.02583527 226.43074638 73.02583527 226.43074638 72.57098389 227.94892883 C71.6875 230.3125 71.6875 230.3125 69.6875 232.3125 C66.9674576 225.70719285 64.51600417 219.06371307 62.2890625 212.27734375 C61.97795532 211.3384581 61.66684814 210.39957245 61.34631348 209.43223572 C60.67968225 207.41997829 60.01433027 205.40729668 59.35015869 203.39422607 C57.56351651 197.98049322 55.76627931 192.57028227 53.96875 187.16015625 C53.42324997 185.51774963 53.42324997 185.51774963 52.86672974 183.84216309 C49.84119432 174.7458087 46.75567636 165.67095608 43.64233398 156.6043396 C38.04564641 140.30433693 32.52179997 123.98019405 27.05169678 107.63726807 C26.22893205 105.18080699 25.40460384 102.72486901 24.57867432 100.26947021 C23.42560339 96.83997185 22.27840929 93.4085636 21.1328125 89.9765625 C20.78355713 88.94110291 20.43430176 87.90564331 20.07446289 86.83880615 C19.75872314 85.8886261 19.4429834 84.93844604 19.11767578 83.95947266 C18.84013458 83.13049469 18.56259338 82.30151672 18.27664185 81.44741821 C17.6875 79.3125 17.6875 79.3125 17.6875 76.3125 C18.96367187 76.17972656 20.23984375 76.04695313 21.5546875 75.91015625 C23.22397996 75.73197335 24.89324964 75.55357686 26.5625 75.375 C27.40425781 75.28798828 28.24601563 75.20097656 29.11328125 75.11132812 C29.91894531 75.02431641 30.72460938 74.93730469 31.5546875 74.84765625 C32.29831543 74.769104 33.04194336 74.69055176 33.80810547 74.60961914 C35.77196316 74.39612653 35.77196316 74.39612653 37.6875 73.3125 C37.73004356 71.31295254 37.72830783 69.31208364 37.6875 67.3125 C36.59149044 65.98911152 36.59149044 65.98911152 33.87573242 66.21484375 C31.9785144 66.23224609 31.9785144 66.23224609 30.04296875 66.25 C28.58642645 66.2583378 27.12988344 66.26655084 25.67333984 66.2746582 C24.89287292 66.2808316 24.11240601 66.287005 23.30828857 66.29336548 C11.379199 66.38717162 -0.53226403 66.35125154 -12.45703125 65.98828125 C-13.458517 65.95902557 -14.46000275 65.9297699 -15.49183655 65.89962769 C-19.4581585 65.78227767 -23.4240689 65.66330555 -27.38931274 65.51342773 C-30.15772204 65.40879052 -32.92620805 65.32213447 -35.6953125 65.23828125 C-36.52492996 65.20092361 -37.35454742 65.16356598 -38.20930481 65.12507629 C-42.41481284 64.89258091 -42.41481284 64.89258091 -46.06906128 66.66007996 C-47.62344523 68.33045536 -47.62344523 68.33045536 -47 71 C-46.773125 71.763125 -46.54625 72.52625 -46.3125 73.3125 C-45.13494141 73.49425781 -45.13494141 73.49425781 -43.93359375 73.6796875 C-42.88300781 73.84726563 -41.83242187 74.01484375 -40.75 74.1875 C-39.71746094 74.34992188 -38.68492187 74.51234375 -37.62109375 74.6796875 C-35.98333984 74.99292969 -35.98333984 74.99292969 -34.3125 75.3125 C-33.16096436 75.49288818 -32.00942871 75.67327637 -30.82299805 75.85913086 C-27.3125 77.3125 -27.3125 77.3125 -25.35693359 80.7487793 C-24.82219279 82.2224863 -24.31695096 83.70711081 -23.8359375 85.19921875 C-23.55293793 85.99776779 -23.26993835 86.79631683 -22.97836304 87.61906433 C-22.3774533 89.31560816 -21.78721864 91.01596531 -21.20690918 92.71966553 C-20.04611679 96.08472773 -18.79146259 99.41059803 -17.53277588 102.74002075 C-16.29063491 106.03075397 -15.07452474 109.33086541 -13.85791016 112.63110352 C-12.9208132 115.1702137 -11.97800929 117.70716305 -11.03515625 120.24414062 C-10.43194538 121.87747632 -9.82906773 123.51093513 -9.2265625 125.14453125 C-8.94745026 125.89346146 -8.66833801 126.64239166 -8.38076782 127.41401672 C-5.71306541 134.68655872 -5.03222365 138.67245443 -7.40625 146.0859375 C-7.63614624 146.83306 -7.86604248 147.5801825 -8.10290527 148.34994507 C-8.82453402 150.67582084 -9.56486711 152.99486275 -10.3125 155.3125 C-10.53566895 156.00637817 -10.75883789 156.70025635 -10.98876953 157.41516113 C-12.55880593 162.26877143 -14.18089203 167.10430364 -15.8125 171.9375 C-16.86425621 175.06217253 -17.91465301 178.18730102 -18.96484375 181.3125 C-19.23485703 182.11491119 -19.5048703 182.91732239 -19.7830658 183.74404907 C-21.54332994 188.98583387 -23.27301436 194.23685494 -24.98294067 199.49526978 C-26.15631861 203.10293031 -27.33727332 206.70809222 -28.51855469 210.31317139 C-29.0878024 212.05746613 -29.65341944 213.80295008 -30.21533203 215.54962158 C-30.99994585 217.9868195 -31.79735657 220.41947837 -32.59765625 222.8515625 C-32.82844376 223.58004395 -33.05923126 224.30852539 -33.29701233 225.05908203 C-34.51966732 228.73001763 -34.99211543 230.09891029 -38.3125 232.3125 C-47.2882313 206.26555518 -56.05390554 180.1511888 -64.74334717 154.00769043 C-71.15554558 134.71691898 -77.6194363 115.4460154 -84.27734375 96.23828125 C-84.54133972 95.4728299 -84.80533569 94.70737854 -85.07733154 93.91873169 C-85.55297202 92.53985377 -86.03120886 91.16186645 -86.51300049 89.78512573 C-88.04398028 85.33923499 -89.22098292 80.88109836 -90.3125 76.3125 C-89.21550781 76.17972656 -88.11851562 76.04695313 -86.98828125 75.91015625 C-85.53384199 75.73187015 -84.07941558 75.5534792 -82.625 75.375 C-81.90376953 75.28798828 -81.18253906 75.20097656 -80.43945312 75.11132812 C-76.69239416 74.64936195 -73.00457089 74.12082321 -69.3125 73.3125 C-69.56811323 70.9693787 -69.90520772 68.63406597 -70.3125 66.3125 C-72.81815064 65.05967468 -74.30348648 65.28356261 -77.09765625 65.43359375 C-78.09224854 65.48201416 -79.08684082 65.53043457 -80.11157227 65.58032227 C-81.18850342 65.63631592 -82.26543457 65.69230957 -83.375 65.75 C-96.36037544 66.35730842 -109.31556285 66.42115607 -122.3125 66.3125 C-115.24706837 51.70426893 -102.00531907 38.98668301 -89.3125 29.3125 C-88.47460938 28.64734375 -87.63671875 27.9821875 -86.7734375 27.296875 C-62.27297179 8.4959134 -30.56611452 -0.14170946 0 0 Z " fill="#000000" transform="translate(257.3125,111.6875)"/>
<path d="M0 0 C3 1 3 1 4.063797 3.06645203 C4.38797104 3.9799794 4.71214508 4.89350677 5.04614258 5.8347168 C5.42166763 6.87455215 5.79719269 7.91438751 6.18409729 8.98573303 C6.5835405 10.12868332 6.9829837 11.27163361 7.39453125 12.44921875 C8.03073647 14.22461281 8.03073647 14.22461281 8.67979431 16.03587341 C9.5923953 18.5869497 10.50071038 21.13909458 11.40197754 23.69415283 C12.81344787 27.69526028 14.24053714 31.69067166 15.67089844 35.68505859 C17.10410511 39.68927853 18.53663395 43.69372622 19.9637146 47.70013428 C23.82329843 58.53416599 27.76005937 69.33832408 31.75 80.125 C32.30793408 81.63726157 32.86579677 83.14954948 33.42358398 84.66186523 C35.87699404 91.30661955 38.35011509 97.94348711 40.8515625 104.5703125 C41.28243164 105.71226074 41.71330078 106.85420898 42.15722656 108.03076172 C42.9395322 110.09882149 43.72506717 112.16566414 44.51464844 114.23095703 C44.84754883 115.10864746 45.18044922 115.98633789 45.5234375 116.890625 C45.81138184 117.64375977 46.09932617 118.39689453 46.39599609 119.17285156 C47 121 47 121 47 123 C19.04986359 133.00195829 -13.75327847 135.17898574 -42 125 C-40.68273175 118.59931938 -38.9649886 112.52399448 -36.83203125 106.3515625 C-36.52042053 105.43770279 -36.20880981 104.52384308 -35.88775635 103.58229065 C-34.86750459 100.59484811 -33.84018275 97.6098936 -32.8125 94.625 C-32.0946955 92.52914697 -31.37717029 90.43319826 -30.65991211 88.3371582 C-24.34656117 69.91262066 -17.93343173 51.52281233 -11.49700928 33.14097595 C-7.63401157 22.10461643 -3.81426278 11.05328703 0 0 Z " fill="#000000" transform="translate(257,269)"/>
<path d="M0 0 C0.66 0 1.32 0 2 0 C2.29709366 0.81397499 2.29709366 0.81397499 2.60018921 1.64439392 C11.62730971 26.37549446 20.66267225 51.10345071 29.75 75.8125 C36.90204334 95.26098218 44.01987529 114.72184057 51.125 134.1875 C51.36961472 134.85761234 51.61422943 135.52772469 51.86625671 136.21814346 C57.92210562 152.80799949 63.96974226 169.40082211 70 186 C69.34 186.66 68.68 187.32 68 188 C31.18960403 167.79458557 5.91268427 138.66743197 -6.9375 98.6796875 C-13.97992817 74.29010171 -14.94287225 46.54761962 -8 22 C-7.68724121 20.87126465 -7.68724121 20.87126465 -7.36816406 19.71972656 C-5.43657889 12.87244822 -3.33235366 6.31698346 0 0 Z " fill="#000000" transform="translate(124,198)"/>
<path d="M0 0 C3.48031266 3.20820209 4.98903086 6.78543979 6.875 11.0625 C7.22578613 11.85744873 7.57657227 12.65239746 7.93798828 13.47143555 C10.29908905 18.9888124 12.26104039 24.53322037 13.875 30.3125 C14.06562012 30.99127197 14.25624023 31.67004395 14.45263672 32.36938477 C17.43462601 43.73467698 18.36366648 55.02911379 18.3125 66.75 C18.30831055 68.06750244 18.30412109 69.38500488 18.29980469 70.74243164 C18.18663735 80.51756178 17.35464514 89.51067902 15 99 C14.70996094 100.26199219 14.41992188 101.52398437 14.12109375 102.82421875 C4.977581 140.04864513 -18.05090244 169.43617174 -49.53125 190.53125 C-52 192 -52 192 -54 192 C-52.51006983 184.52472018 -50.26918614 177.45453589 -47.80859375 170.24609375 C-47.39124466 169.01233002 -46.97389557 167.77856628 -46.54389954 166.50741577 C-45.415359 163.17315798 -44.28042275 159.8411116 -43.1438446 156.50958633 C-42.43439315 154.42838594 -41.72684079 152.34654943 -41.01989746 150.26449585 C-34.72701614 131.73382211 -28.31663908 113.24822229 -21.75 94.8125 C-21.39958649 93.82864319 -21.04917297 92.84478638 -20.68814087 91.83111572 C-20.343508 90.86349304 -19.99887512 89.89587036 -19.64379883 88.89892578 C-15.90269055 78.39258648 -12.1827656 67.88261857 -8.625 57.3125 C-8.2856543 56.31645752 -7.94630859 55.32041504 -7.59667969 54.29418945 C-2.90850561 40.18916728 -0.95356107 26.77119049 -0.4375 12 C-0.37272461 10.26556641 -0.37272461 10.26556641 -0.30664062 8.49609375 C-0.20132083 5.66416146 -0.09918913 2.83215253 0 0 Z " fill="#000000" transform="translate(382,188)"/>
</svg>
